# xmcd CD database file
#
# Track frame offsets:
#	150
#	22120
#	38425
#	49455
#	63532
#	82429
#	95098
#	106949
#	125634
#	137290
#	159476
#	177206
#
# Disc length: 2573 seconds
#
# Revision: 0
# Processed by: cddbd v1.5.2PL0 Copyright (c) Steve Scherf et al.
# Submitted via: CDex 1.70beta2
#
DISCID=a60a0b0c
DTITLE=Martina und Thomas Hoeveler - Shakespeare in Blue
DYEAR=2001
DGENRE=Blues
TTITLE0=Take all my loves
TTITLE1=No more be grieved
TTITLE2=Sweet flattery
TTITLE3=Nothing like the sun
TTITLE4=Shall I compare
TTITLE5=If the dull substance
TTITLE6=Not mine own fears
TTITLE7=Lord of my love
TTITLE8=The tenth muse
TTITLE9=Telling what is told
TTITLE10=Fair, kind and true
TTITLE11=Some glory
EXTD=YEAR: 2001
EXTT0=
EXTT1=
EXTT2=
EXTT3=
EXTT4=
EXTT5=
EXTT6=
EXTT7=
EXTT8=
EXTT9=
EXTT10=
EXTT11=
PLAYORDER=
